<svg xmlns="http://www.w3.org/2000/svg" version="1.1" xmlns:xlink="http://www.w3.org/1999/xlink" width="1500" height="137" viewBox="0 0 1500 137"><svg xml:space="preserve" width="1500" height="137" data-version="2" data-id="lg_0bptfOGJDaLF1yukaI" viewBox="0 0 644 137" x="0" y="0"><rect width="100%" height="100%" fill="transparent"></rect><path fill="#ff4500" d="M166.32 52.238V6.258h36.34q2.1 0 3.86 1.02 1.76 1.02 2.78 2.78 1.02 1.75 1.02 3.86v9.77q0 .9-.22 1.76-.23.86-.61 1.63 1.41 2.11 2.11 3.64.7 1.53.7 3.13v10.73q0 2.1-1.02 3.86-1.02 1.76-2.78 2.78-1.76 1.02-3.86 1.02zm7.66-5.17h30.66q1.02 0 1.75-.74.74-.73.74-1.75v-10.73q0-1.02-.74-1.76-.73-.73-1.75-.73h-30.66q-1.02 0-1.75.73-.74.74-.74 1.76v10.73q0 1.02.74 1.75.73.74 1.75.74m0-20.89h28.68q1.02 0 1.72-.73.7-.74.7-1.76v-9.77q0-1.02-.7-1.75-.7-.74-1.72-.74h-28.68q-1.02 0-1.75.74-.74.73-.74 1.75v9.77q0 1.02.74 1.76.73.73 1.75.73"></path><rect width="45.98" height="45.98" x="-22.99" y="-22.99" fill="none" rx="0" ry="0" transform="translate(189.81 29.75)"></rect><path fill="#ff4500" d="M226.73 52.238q-2.1 0-3.86-1.05-1.76-1.06-2.81-2.81-1.05-1.76-1.05-3.87V3.058h5.23v41.45q0 1.02.74 1.76.73.73 1.75.73h6.26v5.24z"></path><rect width="13.98" height="49.18" x="-6.99" y="-24.59" fill="none" rx="0" ry="0" transform="translate(226.5 28.15)"></rect><path fill="#ff4500" d="M276.04 52.238h-30.02q-2.11 0-3.86-1.05-1.76-1.06-2.81-2.81-1.06-1.76-1.06-3.87v-13.41h32.45v-8.17q0-1.03-.74-1.76-.73-.73-1.75-.73h-29.96v-5.24h29.96q2.17 0 3.92 1.05 1.76 1.06 2.81 2.81 1.06 1.76 1.06 3.87zm-30.02-5.24h24.72v-10.66h-27.21v8.17q0 1.02.73 1.76.74.73 1.76.73"></path><rect width="37.75" height="37.04" x="-18.88" y="-18.52" fill="none" rx="0" ry="0" transform="translate(257.67 34.22)"></rect><path fill="#ff4500" d="M290.28 52.238q-2.11 0-3.86-1.05-1.76-1.06-2.81-2.81-1.06-1.76-1.06-3.87v-21.58q0-2.11 1.06-3.87 1.05-1.75 2.81-2.81 1.75-1.05 3.86-1.05h29.89v5.24h-29.89q-1.02 0-1.76.73-.73.73-.73 1.76v21.58q0 1.02.73 1.76.74.73 1.76.73h30.02v5.24z"></path><rect width="37.75" height="37.04" x="-18.88" y="-18.52" fill="none" rx="0" ry="0" transform="translate(301.93 34.22)"></rect><path fill="#ff4500" d="M332.37 52.238h-5.24V3.058h5.24v28.04h10.21l14.57-15.9h6.89v.06l-16.79 18.46 16.73 18.46v.06h-6.83l-14.57-15.9h-10.21z"></path><rect width="36.91" height="49.18" x="-18.45" y="-24.59" fill="none" rx="0" ry="0" transform="translate(346.08 28.15)"></rect><path fill="#ff4500" d="M423.88 52.238h-30.65q-2.11 0-3.86-1.02-1.76-1.02-2.78-2.78-1.02-1.76-1.02-3.86v-1.79h5.17v1.79q0 1.02.73 1.75.74.74 1.76.74h30.65q1.03 0 1.76-.74.74-.73.74-1.75v-10.29q0-1.02-.74-1.72-.73-.7-1.76-.7h-30.65q-2.11 0-3.86-1.06-1.76-1.05-2.78-2.77-1.02-1.73-1.02-3.84v-10.28q0-2.11 1.02-3.86 1.02-1.76 2.78-2.78 1.75-1.02 3.86-1.02h30.65q2.11 0 3.87 1.02 1.76 1.02 2.78 2.78 1.02 1.75 1.02 3.86v1.79h-5.17v-1.79q0-1.02-.74-1.75-.73-.74-1.76-.74h-30.65q-1.02 0-1.76.74-.73.73-.73 1.75v10.28q0 1.03.73 1.73.74.7 1.76.7h30.65q2.11 0 3.87 1.05 1.76 1.06 2.78 2.78 1.02 1.73 1.02 3.83v10.29q0 2.1-1.02 3.86-1.02 1.76-2.78 2.78-1.76 1.02-3.87 1.02"></path><rect width="45.98" height="45.98" x="-22.99" y="-22.99" fill="none" rx="0" ry="0" transform="translate(409.06 29.75)"></rect><path fill="#ff4500" d="M445.92 52.238q-2.11 0-3.87-1.05-1.75-1.06-2.81-2.81-1.05-1.76-1.05-3.87v-29.31h5.24v29.31q0 1.02.73 1.76.74.73 1.76.73h22.22q1.03 0 1.79-.73.77-.74.77-1.76v-29.31h5.23v29.31q0 2.11-1.05 3.87-1.05 1.75-2.81 2.81-1.76 1.05-3.93 1.05z"></path><rect width="37.74" height="37.04" x="-18.87" y="-18.52" fill="none" rx="0" ry="0" transform="translate(457.56 34.22)"></rect><path fill="#ff4500" d="M487.88 52.238h-5.24v-37.04h30.02q2.1 0 3.86 1.05 1.76 1.06 2.81 2.81 1.05 1.76 1.05 3.87v29.31h-5.23v-29.31q0-1.03-.74-1.76-.73-.73-1.75-.73h-22.23q-1.02 0-1.79.73-.76.73-.76 1.76z"></path><rect width="37.74" height="37.04" x="-18.87" y="-18.52" fill="none" rx="0" ry="0" transform="translate(502.01 34.22)"></rect><path fill="#ff4500" d="M189.44 120.078h-5.18v-40.81h-20.43v-5.18h45.98v5.18h-20.37z"></path><rect width="45.98" height="45.99" x="-22.99" y="-23" fill="none" rx="0" ry="0" transform="translate(187.32 97.58)"></rect><path fill="#ff4500" d="M222.01 120.078q-2.11 0-3.87-1.06-1.75-1.05-2.81-2.81-1.05-1.75-1.05-3.86v-21.59q0-2.1 1.05-3.86 1.06-1.76 2.81-2.81 1.76-1.05 3.87-1.05h22.22q2.17 0 3.93 1.05 1.76 1.05 2.81 2.81t1.05 3.86v13.42h-32.5v8.17q0 1.02.73 1.76.74.73 1.76.73h30.01v5.24zm-2.49-29.32v8.18h27.2v-8.18q0-1.02-.73-1.75-.74-.74-1.76-.74h-22.22q-1.02 0-1.76.74-.73.73-.73 1.75"></path><rect width="37.74" height="37.04" x="-18.87" y="-18.52" fill="none" rx="0" ry="0" transform="translate(233.65 102.06)"></rect><path fill="#ff4500" d="M266.2 120.078q-2.1 0-3.86-1.06-1.76-1.05-2.81-2.81-1.06-1.75-1.06-3.86v-21.59q0-2.1 1.06-3.86 1.05-1.76 2.81-2.81t3.86-1.05h29.89v5.23H266.2q-1.02 0-1.75.74-.74.73-.74 1.75v21.59q0 1.02.74 1.76.73.73 1.75.73h30.02v5.24z"></path><rect width="37.75" height="37.04" x="-18.88" y="-18.52" fill="none" rx="0" ry="0" transform="translate(277.85 102.06)"></rect><path fill="#ff4500" d="M308.29 120.078h-5.24v-49.18h5.24v12.14h24.78q2.11 0 3.86 1.05 1.76 1.05 2.81 2.81 1.06 1.76 1.06 3.86v29.32h-5.24v-29.32q0-1.02-.73-1.75-.74-.74-1.76-.74h-22.23q-1.02 0-1.78.74-.77.73-.77 1.75z"></path><rect width="37.75" height="49.18" x="-18.88" y="-24.59" fill="none" rx="0" ry="0" transform="translate(322.43 95.99)"></rect><path fill="#ff4500" d="M350.95 120.078h-5.24v-37.04h30.02q2.11 0 3.86 1.05 1.76 1.05 2.81 2.81 1.06 1.76 1.06 3.86v29.32h-5.24v-29.32q0-1.02-.73-1.75-.74-.74-1.76-.74h-22.22q-1.03 0-1.79.74-.77.73-.77 1.75z"></path><rect width="37.75" height="37.04" x="-18.88" y="-18.52" fill="none" rx="0" ry="0" transform="translate(365.08 102.06)"></rect><path fill="#ff4500" d="M397.7 120.078q-2.11 0-3.86-1.06-1.76-1.05-2.81-2.81-1.06-1.75-1.06-3.86v-21.59q0-2.1 1.06-3.86 1.05-1.76 2.81-2.81 1.75-1.05 3.86-1.05h22.23q2.17 0 3.92 1.05 1.76 1.05 2.81 2.81 1.06 1.76 1.06 3.86v21.59q0 2.11-1.06 3.86-1.05 1.76-2.81 2.81-1.75 1.06-3.92 1.06zm0-5.24h22.23q1.02 0 1.75-.73.74-.74.74-1.76v-21.59q0-1.02-.74-1.75-.73-.74-1.75-.74H397.7q-1.02 0-1.76.74-.73.73-.73 1.75v21.59q0 1.02.73 1.76.74.73 1.76.73"></path><rect width="37.75" height="37.04" x="-18.88" y="-18.52" fill="none" rx="0" ry="0" transform="translate(409.35 102.06)"></rect><path fill="#ff4500" d="M441.96 120.078q-2.11 0-3.87-1.06-1.75-1.05-2.81-2.81-1.05-1.75-1.05-3.86v-41.45h5.24v41.45q0 1.02.73 1.76.74.73 1.76.73h6.26v5.24z"></path><rect width="13.99" height="49.18" x="-7" y="-24.59" fill="none" rx="0" ry="0" transform="translate(441.73 95.99)"></rect><path fill="#ff4500" d="M461.18 120.078q-2.11 0-3.86-1.06-1.76-1.05-2.81-2.81-1.06-1.75-1.06-3.86v-21.59q0-2.1 1.06-3.86 1.05-1.76 2.81-2.81 1.75-1.05 3.86-1.05h22.23q2.17 0 3.92 1.05 1.76 1.05 2.81 2.81 1.06 1.76 1.06 3.86v21.59q0 2.11-1.06 3.86-1.05 1.76-2.81 2.81-1.75 1.06-3.92 1.06zm0-5.24h22.23q1.02 0 1.75-.73.74-.74.74-1.76v-21.59q0-1.02-.74-1.75-.73-.74-1.75-.74h-22.23q-1.02 0-1.75.74-.74.73-.74 1.75v21.59q0 1.02.74 1.76.73.73 1.75.73"></path><rect width="37.75" height="37.04" x="-18.88" y="-18.52" fill="none" rx="0" ry="0" transform="translate(472.82 102.06)"></rect><path fill="#ff4500" d="M526.96 134.698h-23.12v-5.3h23.12q1.02 0 1.76-.73.73-.74.73-1.76v-6.83h-24.71q-2.11 0-3.87-1.06-1.75-1.05-2.81-2.81-1.05-1.75-1.05-3.86v-21.59q0-2.1 1.05-3.86 1.06-1.76 2.81-2.81 1.76-1.05 3.87-1.05h22.22q2.17 0 3.93 1.05 1.76 1.05 2.78 2.81 1.02 1.76 1.02 3.86v36.15q0 2.17-1.02 3.93-1.02 1.76-2.78 2.81-1.76 1.05-3.93 1.05m-22.22-19.86h22.22q1.02 0 1.76-.73.73-.74.73-1.76v-21.59q0-1.02-.73-1.75-.74-.74-1.76-.74h-22.22q-1.02 0-1.76.74-.73.73-.73 1.75v21.59q0 1.02.73 1.76.74.73 1.76.73"></path><rect width="37.68" height="51.66" x="-18.84" y="-25.83" fill="none" rx="0" ry="0" transform="translate(516.35 109.37)"></rect><path fill="#ff4500" d="M546.57 120.078h-5.24v-37.04h5.24zm0-43.94h-5.24v-5.24h5.24z"></path><rect width="5.24" height="49.18" x="-2.62" y="-24.59" fill="none" rx="0" ry="0" transform="translate(544.45 95.99)"></rect><path fill="#ff4500" d="M562.28 120.078q-2.11 0-3.86-1.06-1.76-1.05-2.81-2.81-1.06-1.75-1.06-3.86v-21.59q0-2.1 1.06-3.86 1.05-1.76 2.81-2.81 1.75-1.05 3.86-1.05h22.23q2.17 0 3.92 1.05 1.76 1.05 2.81 2.81 1.06 1.76 1.06 3.86v13.42h-32.51v8.17q0 1.02.73 1.76.74.73 1.76.73h30.02v5.24zm-2.49-29.32v8.18H587v-8.18q0-1.02-.74-1.75-.73-.74-1.75-.74h-22.23q-1.02 0-1.76.74-.73.73-.73 1.75"></path><rect width="37.75" height="37.04" x="-18.88" y="-18.52" fill="none" rx="0" ry="0" transform="translate(573.92 102.06)"></rect><path fill="#ff4500" d="M606.28 120.078q-2.1 0-3.86-1.06-1.76-1.05-2.81-2.81-1.05-1.75-1.05-3.86v-.51h5.23v.51q0 1.02.74 1.76.73.73 1.75.73h22.23q1.02 0 1.75-.73.74-.74.74-1.76v-5.68q0-1.03-.74-1.76-.73-.73-1.75-.73h-22.23q-2.1 0-3.86-1.06-1.76-1.05-2.81-2.81-1.05-1.75-1.05-3.86v-5.69q0-2.1 1.05-3.86 1.05-1.76 2.81-2.81t3.86-1.05h22.23q2.17 0 3.93 1.05 1.75 1.05 2.81 2.81 1.05 1.76 1.05 3.86v.51H631v-.51q0-1.02-.74-1.75-.73-.74-1.75-.74h-22.23q-1.02 0-1.75.74-.74.73-.74 1.75v5.69q0 1.02.74 1.75.73.74 1.75.74h22.23q2.17 0 3.93 1.05 1.75 1.06 2.81 2.81 1.05 1.76 1.05 3.87v5.68q0 2.11-1.05 3.86-1.06 1.76-2.81 2.81-1.76 1.06-3.93 1.06z"></path><rect width="37.74" height="37.04" x="-18.87" y="-18.52" fill="none" rx="0" ry="0" transform="translate(617.93 102.06)"></rect><circle r="84.15" fill="#1f1f1f" stroke="#ff4500" stroke-width="6" transform="translate(71.54 66.14)scale(.7441)"></circle><path fill="#ff4500" d="M99.288 68.4v-1.98h-11.25a14.362 14.362 0 0 0-1.478-4.686h5.54v-1.986h-6.785l-.37-.491 9.34-9.215-1.394-1.413-9.305 9.186a14.362 14.362 0 0 0-1.155-.976v-7.503h-1.98v6.223a14.362 14.362 0 0 0-5.775-1.622v-12.29h-1.987v12.278a14.443 14.443 0 0 0-4.638 1.09V49.33h-1.98v6.726q-1.078.664-2.023 1.508l-9.443-8.947-1.364 1.437 9.413 8.928q-.312.377-.599.766h-8.132v1.986h6.882a14.362 14.362 0 0 0-1.478 4.686H45.988v1.98h13.2c0 1.844.36 3.609.988 5.23H54.6v1.987h6.529a14.362 14.362 0 0 0 1.855 2.537l-8.258 8.163 1.388 1.406 8.3-8.192q.784.652 1.664 1.185v6.3h1.98v-5.265a14.362 14.362 0 0 0 4.638 1.089v10.37h1.986V82.84a14.362 14.362 0 0 0 5.775-1.628v5.805h1.98v-7.085q.641-.479 1.227-1.035l7.762 7.36 1.364-1.448-7.78-7.373q.689-.861 1.24-1.819h6.528v-1.986h-5.583a14.362 14.362 0 0 0 .993-5.23z"></path></svg></svg>